<?xml version="1.0" encoding="UTF-8"?>
<svg xmlns="http://www.w3.org/2000/svg" width="100mm" height="26.2mm" viewBox="0 0 100 26.2">
<title>A — грудь: логотип Т-Софт, 100 мм</title>
<g transform="translate(0.00 0.00) scale(0.005734) translate(-2887.7 -15585.1)">
<path fill="#015afd" d="M4484.05 19033.45l-475.91 -486.39 337.11 -342.89c-39.66,-46.58 -152.03,-169.58 -198.3,-182.62l-330.5 329.84 -489.14 -484.52c204.91,-178.9 740.32,-736.09 971.67,-965.31 211.51,-214.3 508.96,-523.65 727.09,-724.91 118.98,-115.54 105.76,-195.67 244.57,-50.32 125.59,136.04 118.98,178.9 251.18,50.32 125.59,-126.72 33.05,-130.45 -79.32,-247.85 -264.4,-275.81 -356.94,-195.67 -594.9,39.13l-1447.58 1449.83c-152.03,150.95 -449.48,355.94 -304.06,590.74 46.27,78.27 826.25,840.46 958.45,972.77 152.03,149.08 356.93,445.38 594.89,270.21 118.98,-85.72 370.16,-361.52 489.14,-478.93 92.54,-100.63 211.52,-137.9 92.54,-251.57 -158.64,-145.36 -112.37,-108.09 -251.18,27.95 -165.25,156.54 -323.89,337.3 -495.75,484.52z"/>
<path fill="#015afd" d="M4351.86 17822.15c13.22,37.27 145.41,165.85 178.46,188.22l297.45 -288.85 680.83 674.6c39.66,-29.82 165.25,-152.81 178.47,-193.81l-661 -670.87 284.23 -292.58 -178.47 -186.35c-46.27,16.77 -740.32,708.14 -779.97,769.64z"/>
<rect fill="#FFFFFF" x="9715.12" y="17731.54" width="1203.87" height="265.9"/>
<path fill="#FFFFFF" d="M12256.45 19059.68c-657.06,0 -1094.22,-534.36 -1094.22,-1190.24 0,-646.83 427.98,-1190.24 1094.22,-1190.24 524.61,0 889.56,313.56 1032.61,828.77l-283.17 0c-116.98,-363.81 -377.59,-569.45 -749.53,-569.45 -509.43,0 -825.26,431.62 -825.26,930.83 0,499.26 315.8,930.83 825.26,930.83 389.34,0 637.26,-225.25 749.23,-585.5l283.2 0c-137.49,507.8 -486.22,845 -1032.34,845z"/>
<polygon fill="#FFFFFF" points="19133.23,16977.67 18380.43,16977.67 18380.43,16712.02 20158.19,16712.02 20158.19,16977.67 19405.39,16977.67 19405.39,19029.27 19133.23,19029.27 "/>
<path fill="#FFFFFF" d="M16210.07 16968.19c158.01,-158 376.32,-255.74 617.44,-255.74l575.52 0.01c241.12,0 459.43,97.74 617.43,255.74 158,158 255.74,376.31 255.74,617.43 0,241.12 -97.73,459.43 -255.74,617.43 -238.69,238.69 -465.34,255.74 -776.36,255.74l0 570.05 -257.67 0 0 -570.05c-311.02,0 -537.66,-17.06 -776.36,-255.74 -158,-158 -255.74,-376.31 -255.74,-617.43 0,-241.13 97.74,-459.44 255.74,-617.44zm182.41 1052.46c184.68,184.68 358.06,180.48 593.95,180.48l0 -1231.01 -158.92 0c-169.69,0 -323.59,69.04 -435.03,180.48 -111.44,111.44 -180.48,265.33 -180.48,435.03 0,169.69 69.04,323.58 180.48,435.02zm851.71 -1050.53l0 1231.17c230.23,0.01 406.26,7.06 593.95,-180.63 111.44,-111.44 180.48,-265.34 180.48,-435.03 0,-169.69 -69.04,-323.58 -180.48,-435.03 -111.44,-111.44 -265.34,-180.48 -435.03,-180.48l-158.92 0z"/>
<path fill="#FFFFFF" d="M15378.15 18233.2c36.46,-116.87 58.58,-283.82 57.67,-408.33 -1.62,-208.62 -75.71,-420.53 -204.2,-584.15 -142.85,-181.91 -345.55,-294.74 -579.11,-293.01 -252.27,2.53 -436.02,63.24 -607.78,254.58 -155.73,155.86 -231.01,421.51 -235.25,637.17 -3.18,322.95 108.51,575.02 277.65,739.04 139.81,135.59 324,214.98 519.21,216.96 339.63,3.46 670.51,-237.56 771.81,-562.26zm-1795.65 -744.98c133.32,-477.28 505.56,-783.57 1002.75,-806.61 299.91,-13.85 564.93,94.7 762.51,279.61 223.12,208.8 347.7,501.65 361.69,805.3 13.49,294.83 -54.94,651.74 -248.84,883.89 -181.45,229.73 -441.13,381.13 -734.48,405.94 -519.3,42.84 -875.58,-222.52 -1056.52,-590.35 -146.42,-297.66 -176.21,-658.77 -87.11,-977.78z"/>
<polygon fill="#FFFFFF" points="8690.16,16977.82 7937.36,16977.82 7937.36,16712.17 9715.12,16712.17 9715.12,16977.82 8962.32,16977.82 8962.32,19029.42 8690.16,19029.42 "/>
<path fill="#015afd" d="M5303.69 16875.47l191.69 178.9 350.33 -350.34 489.14 484.52 -627.95 629.87c19.83,42.86 145.42,165.86 185.08,193.81l634.56 -628.01 489.14 490.11c-152.03,132.31 -654.39,648.51 -832.86,831.14 -284.23,279.53 -561.85,557.19 -839.47,836.72 -52.88,55.91 -145.42,193.81 -211.52,134.18 -46.27,-37.27 -165.25,-197.54 -218.13,-195.67 -19.83,1.86 -198.3,141.62 -158.64,201.26 13.22,22.36 178.47,178.9 211.52,208.71 224.74,210.58 370.16,27.96 528.8,-128.58l1255.9 -1254.16c132.2,-137.9 271.01,-279.53 409.82,-415.57 231.34,-218.03 92.53,-352.21 -72.71,-521.79 -284.23,-279.53 -561.85,-559.06 -839.47,-838.59 -138.81,-137.9 -297.45,-370.84 -515.58,-268.35 -92.54,42.86 -370.16,324.26 -429.65,411.84z"/>
</g>
</svg>
